<mxfile host="app.diagrams.net" agent="Mozilla/5.0 (Windows NT 10.0; Win64; x64) AppleWebKit/537.36 (KHTML, like Gecko) Chrome/137.0.0.0 Safari/537.36 OPR/121.0.0.0" version="28.2.3">
  <diagram name="Page-1" id="XheAkkhV9oPFBLysyuvg">
    <mxGraphModel dx="1381" dy="757" grid="1" gridSize="10" guides="1" tooltips="1" connect="1" arrows="1" fold="1" page="1" pageScale="1" pageWidth="827" pageHeight="1169" background="none" math="0" shadow="0">
      <root>
        <mxCell id="0" />
        <mxCell id="1" parent="0" />
        <mxCell id="15" value="Identification&#xa;Correcte ?" style="rhombus;strokeWidth=2;whiteSpace=wrap;" parent="1" vertex="1">
          <mxGeometry x="1163" y="210" width="155" height="155" as="geometry" />
        </mxCell>
        <mxCell id="25" value="Oui" style="curved=1;startArrow=none;endArrow=block;exitX=0.5;exitY=1;entryX=0.5;entryY=0;exitDx=0;exitDy=0;entryDx=0;entryDy=0;" parent="1" source="15" target="pyX0MIcvsTEZzDeKxINh-42" edge="1">
          <mxGeometry relative="1" as="geometry">
            <Array as="points" />
            <mxPoint x="1240.5" y="450" as="sourcePoint" />
            <mxPoint x="1242.0098039215686" y="440" as="targetPoint" />
          </mxGeometry>
        </mxCell>
        <mxCell id="pyX0MIcvsTEZzDeKxINh-34" value="Authentification" style="rounded=1;whiteSpace=wrap;html=1;" vertex="1" parent="1">
          <mxGeometry x="1181" y="90" width="120" height="60" as="geometry" />
        </mxCell>
        <mxCell id="pyX0MIcvsTEZzDeKxINh-36" value="" style="endArrow=classic;html=1;rounded=0;exitX=0.5;exitY=1;exitDx=0;exitDy=0;entryX=0.5;entryY=0;entryDx=0;entryDy=0;" edge="1" parent="1" target="pyX0MIcvsTEZzDeKxINh-34">
          <mxGeometry width="50" height="50" relative="1" as="geometry">
            <mxPoint x="1241" y="30" as="sourcePoint" />
            <mxPoint x="1290" y="110" as="targetPoint" />
          </mxGeometry>
        </mxCell>
        <mxCell id="pyX0MIcvsTEZzDeKxINh-37" value="" style="endArrow=classic;html=1;rounded=0;entryX=0.5;entryY=0;entryDx=0;entryDy=0;exitX=0.5;exitY=1;exitDx=0;exitDy=0;" edge="1" parent="1" source="pyX0MIcvsTEZzDeKxINh-34" target="15">
          <mxGeometry width="50" height="50" relative="1" as="geometry">
            <mxPoint x="1240" y="160" as="sourcePoint" />
            <mxPoint x="1290" y="110" as="targetPoint" />
          </mxGeometry>
        </mxCell>
        <mxCell id="pyX0MIcvsTEZzDeKxINh-40" value="" style="endArrow=classic;html=1;rounded=0;exitX=1;exitY=0.5;exitDx=0;exitDy=0;entryX=1;entryY=0.5;entryDx=0;entryDy=0;" edge="1" parent="1" source="15" target="pyX0MIcvsTEZzDeKxINh-34">
          <mxGeometry width="50" height="50" relative="1" as="geometry">
            <mxPoint x="1333" y="287.5" as="sourcePoint" />
            <mxPoint x="1328" y="160" as="targetPoint" />
            <Array as="points">
              <mxPoint x="1360" y="288" />
              <mxPoint x="1360" y="120" />
            </Array>
          </mxGeometry>
        </mxCell>
        <mxCell id="pyX0MIcvsTEZzDeKxINh-41" value="Non" style="edgeLabel;html=1;align=center;verticalAlign=middle;resizable=0;points=[];" vertex="1" connectable="0" parent="pyX0MIcvsTEZzDeKxINh-40">
          <mxGeometry x="-0.7283" y="-2" relative="1" as="geometry">
            <mxPoint x="5" y="-80" as="offset" />
          </mxGeometry>
        </mxCell>
        <mxCell id="pyX0MIcvsTEZzDeKxINh-42" value="Choix de la fonctionnalité" style="rounded=1;whiteSpace=wrap;html=1;" vertex="1" parent="1">
          <mxGeometry x="1181" y="440" width="120" height="60" as="geometry" />
        </mxCell>
        <mxCell id="pyX0MIcvsTEZzDeKxINh-59" value="" style="endArrow=classic;html=1;rounded=0;exitX=0.5;exitY=1;exitDx=0;exitDy=0;entryX=0.579;entryY=0.001;entryDx=0;entryDy=0;entryPerimeter=0;" edge="1" parent="1" source="pyX0MIcvsTEZzDeKxINh-42" target="pyX0MIcvsTEZzDeKxINh-68">
          <mxGeometry width="50" height="50" relative="1" as="geometry">
            <mxPoint x="1240.5" y="590" as="sourcePoint" />
            <mxPoint x="1360" y="630" as="targetPoint" />
          </mxGeometry>
        </mxCell>
        <mxCell id="pyX0MIcvsTEZzDeKxINh-68" value="Gestion Templates d&#39;anomalies" style="shape=umlFrame;whiteSpace=wrap;html=1;pointerEvents=0;recursiveResize=0;container=1;collapsible=0;width=170;height=50;" vertex="1" parent="1">
          <mxGeometry x="90" y="600" width="1986" height="2450" as="geometry" />
        </mxCell>
        <mxCell id="pyX0MIcvsTEZzDeKxINh-60" value="Création / Modification du template" style="rounded=0;whiteSpace=wrap;html=1;" vertex="1" parent="pyX0MIcvsTEZzDeKxINh-68">
          <mxGeometry x="888" y="170" width="120" height="60" as="geometry" />
        </mxCell>
        <mxCell id="pyX0MIcvsTEZzDeKxINh-61" value="Suppression du template" style="rounded=0;whiteSpace=wrap;html=1;" vertex="1" parent="pyX0MIcvsTEZzDeKxINh-68">
          <mxGeometry x="1310" y="170" width="120" height="60" as="geometry" />
        </mxCell>
        <mxCell id="pyX0MIcvsTEZzDeKxINh-63" value="" style="endArrow=classic;html=1;rounded=0;entryX=0.5;entryY=0;entryDx=0;entryDy=0;exitX=0.579;exitY=0;exitDx=0;exitDy=0;exitPerimeter=0;" edge="1" parent="pyX0MIcvsTEZzDeKxINh-68" source="pyX0MIcvsTEZzDeKxINh-68" target="pyX0MIcvsTEZzDeKxINh-60">
          <mxGeometry width="50" height="50" relative="1" as="geometry">
            <mxPoint x="1109" y="90" as="sourcePoint" />
            <mxPoint x="1063" y="110" as="targetPoint" />
            <Array as="points">
              <mxPoint x="948.5" y="90" />
            </Array>
          </mxGeometry>
        </mxCell>
        <mxCell id="pyX0MIcvsTEZzDeKxINh-64" value="" style="endArrow=classic;html=1;rounded=0;entryX=0.5;entryY=0;entryDx=0;entryDy=0;exitX=0.578;exitY=0;exitDx=0;exitDy=0;exitPerimeter=0;" edge="1" parent="pyX0MIcvsTEZzDeKxINh-68" source="pyX0MIcvsTEZzDeKxINh-68" target="pyX0MIcvsTEZzDeKxINh-61">
          <mxGeometry width="50" height="50" relative="1" as="geometry">
            <mxPoint x="1229.5" y="90" as="sourcePoint" />
            <mxPoint x="1113.5" y="310" as="targetPoint" />
            <Array as="points" />
          </mxGeometry>
        </mxCell>
        <mxCell id="pyX0MIcvsTEZzDeKxINh-65" value="Etes-vous Sûr ?" style="rhombus;strokeWidth=2;whiteSpace=wrap;" vertex="1" parent="pyX0MIcvsTEZzDeKxINh-68">
          <mxGeometry x="1320" y="270" width="100" height="100" as="geometry" />
        </mxCell>
        <mxCell id="pyX0MIcvsTEZzDeKxINh-66" value="Oui" style="curved=1;startArrow=none;endArrow=block;exitX=0.5;exitY=1;exitDx=0;exitDy=0;entryX=0.5;entryY=0;entryDx=0;entryDy=0;" edge="1" parent="pyX0MIcvsTEZzDeKxINh-68" source="pyX0MIcvsTEZzDeKxINh-65" target="pyX0MIcvsTEZzDeKxINh-69">
          <mxGeometry relative="1" as="geometry">
            <Array as="points" />
            <mxPoint x="1195.5" y="440" as="sourcePoint" />
            <mxPoint x="1205.5" y="420" as="targetPoint" />
          </mxGeometry>
        </mxCell>
        <mxCell id="pyX0MIcvsTEZzDeKxINh-67" value="" style="endArrow=classic;html=1;rounded=0;exitX=0.5;exitY=1;exitDx=0;exitDy=0;entryX=0.5;entryY=0;entryDx=0;entryDy=0;" edge="1" parent="pyX0MIcvsTEZzDeKxINh-68" source="pyX0MIcvsTEZzDeKxINh-61" target="pyX0MIcvsTEZzDeKxINh-65">
          <mxGeometry width="50" height="50" relative="1" as="geometry">
            <mxPoint x="995.5" y="390" as="sourcePoint" />
            <mxPoint x="1045.5" y="340" as="targetPoint" />
          </mxGeometry>
        </mxCell>
        <mxCell id="pyX0MIcvsTEZzDeKxINh-69" value="Le template est supprimé" style="rounded=0;whiteSpace=wrap;html=1;" vertex="1" parent="pyX0MIcvsTEZzDeKxINh-68">
          <mxGeometry x="1324.75" y="440" width="90.5" height="40" as="geometry" />
        </mxCell>
        <mxCell id="pyX0MIcvsTEZzDeKxINh-71" value="" style="endArrow=classic;html=1;rounded=0;exitX=1;exitY=0.5;exitDx=0;exitDy=0;entryX=1;entryY=0.5;entryDx=0;entryDy=0;" edge="1" parent="pyX0MIcvsTEZzDeKxINh-68" source="pyX0MIcvsTEZzDeKxINh-65" target="pyX0MIcvsTEZzDeKxINh-61">
          <mxGeometry relative="1" as="geometry">
            <mxPoint x="1240.5" y="319.58000000000004" as="sourcePoint" />
            <mxPoint x="1270.5" y="320" as="targetPoint" />
            <Array as="points">
              <mxPoint x="1490" y="320" />
              <mxPoint x="1490" y="200" />
            </Array>
          </mxGeometry>
        </mxCell>
        <mxCell id="pyX0MIcvsTEZzDeKxINh-74" value="Non" style="edgeLabel;html=1;align=center;verticalAlign=middle;resizable=0;points=[];" vertex="1" connectable="0" parent="pyX0MIcvsTEZzDeKxINh-71">
          <mxGeometry x="0.0635" y="1" relative="1" as="geometry">
            <mxPoint as="offset" />
          </mxGeometry>
        </mxCell>
        <mxCell id="pyX0MIcvsTEZzDeKxINh-76" value="donnée pré existante ?" style="rhombus;whiteSpace=wrap;html=1;" vertex="1" parent="pyX0MIcvsTEZzDeKxINh-68">
          <mxGeometry x="897.75" y="290" width="100.5" height="90" as="geometry" />
        </mxCell>
        <mxCell id="pyX0MIcvsTEZzDeKxINh-79" value="" style="endArrow=classic;html=1;rounded=0;exitX=0.5;exitY=1;exitDx=0;exitDy=0;entryX=0.5;entryY=0;entryDx=0;entryDy=0;" edge="1" parent="pyX0MIcvsTEZzDeKxINh-68" source="pyX0MIcvsTEZzDeKxINh-60" target="pyX0MIcvsTEZzDeKxINh-76">
          <mxGeometry width="50" height="50" relative="1" as="geometry">
            <mxPoint x="988" y="280" as="sourcePoint" />
            <mxPoint x="1038" y="230" as="targetPoint" />
          </mxGeometry>
        </mxCell>
        <mxCell id="pyX0MIcvsTEZzDeKxINh-83" value="Modification&lt;div&gt;du template séléctionné&lt;/div&gt;" style="rounded=1;whiteSpace=wrap;html=1;" vertex="1" parent="pyX0MIcvsTEZzDeKxINh-68">
          <mxGeometry x="888" y="465" width="120" height="60" as="geometry" />
        </mxCell>
        <mxCell id="pyX0MIcvsTEZzDeKxINh-81" value="" style="endArrow=classic;html=1;rounded=0;exitX=0.5;exitY=1;exitDx=0;exitDy=0;entryX=0.5;entryY=0;entryDx=0;entryDy=0;" edge="1" parent="pyX0MIcvsTEZzDeKxINh-68" source="pyX0MIcvsTEZzDeKxINh-76" target="pyX0MIcvsTEZzDeKxINh-83">
          <mxGeometry relative="1" as="geometry">
            <mxPoint x="918" y="490" as="sourcePoint" />
            <mxPoint x="1008" y="480" as="targetPoint" />
          </mxGeometry>
        </mxCell>
        <mxCell id="pyX0MIcvsTEZzDeKxINh-82" value="Oui" style="edgeLabel;resizable=0;html=1;;align=center;verticalAlign=middle;" connectable="0" vertex="1" parent="pyX0MIcvsTEZzDeKxINh-81">
          <mxGeometry relative="1" as="geometry">
            <mxPoint as="offset" />
          </mxGeometry>
        </mxCell>
        <mxCell id="pyX0MIcvsTEZzDeKxINh-84" value="" style="endArrow=classic;html=1;rounded=0;exitX=0;exitY=0.5;exitDx=0;exitDy=0;entryX=1;entryY=0.5;entryDx=0;entryDy=0;" edge="1" parent="pyX0MIcvsTEZzDeKxINh-68" source="pyX0MIcvsTEZzDeKxINh-76" target="pyX0MIcvsTEZzDeKxINh-86">
          <mxGeometry relative="1" as="geometry">
            <mxPoint x="688" y="334.5" as="sourcePoint" />
            <mxPoint x="788" y="334.5" as="targetPoint" />
          </mxGeometry>
        </mxCell>
        <mxCell id="pyX0MIcvsTEZzDeKxINh-85" value="Non" style="edgeLabel;resizable=0;html=1;;align=center;verticalAlign=middle;" connectable="0" vertex="1" parent="pyX0MIcvsTEZzDeKxINh-84">
          <mxGeometry relative="1" as="geometry" />
        </mxCell>
        <mxCell id="pyX0MIcvsTEZzDeKxINh-86" value="Création d&#39;un template" style="rounded=1;whiteSpace=wrap;html=1;" vertex="1" parent="pyX0MIcvsTEZzDeKxINh-68">
          <mxGeometry x="508" y="305" width="120" height="60" as="geometry" />
        </mxCell>
        <mxCell id="pyX0MIcvsTEZzDeKxINh-89" value="La / les valeurs entrée ou choisis respecte les règles pré déterminée ?" style="rhombus;whiteSpace=wrap;html=1;" vertex="1" parent="pyX0MIcvsTEZzDeKxINh-68">
          <mxGeometry x="852" y="580" width="192" height="190" as="geometry" />
        </mxCell>
        <mxCell id="pyX0MIcvsTEZzDeKxINh-90" value="" style="endArrow=classic;html=1;rounded=0;exitX=0.5;exitY=1;exitDx=0;exitDy=0;entryX=0.5;entryY=0;entryDx=0;entryDy=0;" edge="1" parent="pyX0MIcvsTEZzDeKxINh-68" source="pyX0MIcvsTEZzDeKxINh-83" target="pyX0MIcvsTEZzDeKxINh-89">
          <mxGeometry width="50" height="50" relative="1" as="geometry">
            <mxPoint x="1044" y="530" as="sourcePoint" />
            <mxPoint x="1094" y="480" as="targetPoint" />
          </mxGeometry>
        </mxCell>
        <mxCell id="pyX0MIcvsTEZzDeKxINh-91" value="" style="endArrow=classic;html=1;rounded=0;exitX=1;exitY=0.5;exitDx=0;exitDy=0;entryX=0;entryY=0.5;entryDx=0;entryDy=0;" edge="1" parent="pyX0MIcvsTEZzDeKxINh-68" source="pyX0MIcvsTEZzDeKxINh-89" target="pyX0MIcvsTEZzDeKxINh-93">
          <mxGeometry relative="1" as="geometry">
            <mxPoint x="1098" y="674.5" as="sourcePoint" />
            <mxPoint x="1198" y="674.5" as="targetPoint" />
          </mxGeometry>
        </mxCell>
        <mxCell id="pyX0MIcvsTEZzDeKxINh-92" value="Non" style="edgeLabel;resizable=0;html=1;;align=center;verticalAlign=middle;" connectable="0" vertex="1" parent="pyX0MIcvsTEZzDeKxINh-91">
          <mxGeometry relative="1" as="geometry" />
        </mxCell>
        <mxCell id="pyX0MIcvsTEZzDeKxINh-93" value="Message d&#39;erreur&lt;br&gt;avec le détail" style="rounded=0;whiteSpace=wrap;html=1;" vertex="1" parent="pyX0MIcvsTEZzDeKxINh-68">
          <mxGeometry x="1128" y="645" width="120" height="60" as="geometry" />
        </mxCell>
        <mxCell id="pyX0MIcvsTEZzDeKxINh-94" value="" style="endArrow=classic;html=1;rounded=0;exitX=0.5;exitY=0;exitDx=0;exitDy=0;entryX=1;entryY=0.5;entryDx=0;entryDy=0;" edge="1" parent="pyX0MIcvsTEZzDeKxINh-68" source="pyX0MIcvsTEZzDeKxINh-93" target="pyX0MIcvsTEZzDeKxINh-83">
          <mxGeometry width="50" height="50" relative="1" as="geometry">
            <mxPoint x="1169" y="630" as="sourcePoint" />
            <mxPoint x="1219" y="580" as="targetPoint" />
            <Array as="points">
              <mxPoint x="1188" y="495" />
            </Array>
          </mxGeometry>
        </mxCell>
        <mxCell id="pyX0MIcvsTEZzDeKxINh-95" value="Le template est modifié" style="rounded=0;whiteSpace=wrap;html=1;" vertex="1" parent="pyX0MIcvsTEZzDeKxINh-68">
          <mxGeometry x="888" y="840" width="120" height="60" as="geometry" />
        </mxCell>
        <mxCell id="pyX0MIcvsTEZzDeKxINh-96" value="" style="endArrow=classic;html=1;rounded=0;exitX=0.5;exitY=1;exitDx=0;exitDy=0;entryX=0.5;entryY=0;entryDx=0;entryDy=0;" edge="1" parent="pyX0MIcvsTEZzDeKxINh-68" source="pyX0MIcvsTEZzDeKxINh-89" target="pyX0MIcvsTEZzDeKxINh-95">
          <mxGeometry relative="1" as="geometry">
            <mxPoint x="988" y="780" as="sourcePoint" />
            <mxPoint x="1088" y="780" as="targetPoint" />
          </mxGeometry>
        </mxCell>
        <mxCell id="pyX0MIcvsTEZzDeKxINh-97" value="Oui" style="edgeLabel;resizable=0;html=1;;align=center;verticalAlign=middle;" connectable="0" vertex="1" parent="pyX0MIcvsTEZzDeKxINh-96">
          <mxGeometry relative="1" as="geometry" />
        </mxCell>
        <mxCell id="pyX0MIcvsTEZzDeKxINh-99" value="Choix du Topic ?" style="rhombus;whiteSpace=wrap;html=1;" vertex="1" parent="pyX0MIcvsTEZzDeKxINh-68">
          <mxGeometry x="490" y="790" width="156" height="160" as="geometry" />
        </mxCell>
        <mxCell id="pyX0MIcvsTEZzDeKxINh-100" value="" style="endArrow=classic;html=1;rounded=0;exitX=0.5;exitY=1;exitDx=0;exitDy=0;entryX=0.5;entryY=0;entryDx=0;entryDy=0;" edge="1" parent="pyX0MIcvsTEZzDeKxINh-68" source="pyX0MIcvsTEZzDeKxINh-86" target="pyX0MIcvsTEZzDeKxINh-99">
          <mxGeometry width="50" height="50" relative="1" as="geometry">
            <mxPoint x="528" y="500" as="sourcePoint" />
            <mxPoint x="578" y="450" as="targetPoint" />
          </mxGeometry>
        </mxCell>
        <mxCell id="pyX0MIcvsTEZzDeKxINh-101" value="" style="endArrow=classic;html=1;rounded=0;exitX=1;exitY=0.5;exitDx=0;exitDy=0;entryX=0.5;entryY=0;entryDx=0;entryDy=0;" edge="1" parent="pyX0MIcvsTEZzDeKxINh-68" source="pyX0MIcvsTEZzDeKxINh-99" target="pyX0MIcvsTEZzDeKxINh-103">
          <mxGeometry relative="1" as="geometry">
            <mxPoint x="655" y="869.5" as="sourcePoint" />
            <mxPoint x="748" y="870" as="targetPoint" />
            <Array as="points">
              <mxPoint x="756" y="870" />
            </Array>
          </mxGeometry>
        </mxCell>
        <mxCell id="pyX0MIcvsTEZzDeKxINh-102" value="Bâtiment" style="edgeLabel;resizable=0;html=1;;align=center;verticalAlign=middle;" connectable="0" vertex="1" parent="pyX0MIcvsTEZzDeKxINh-101">
          <mxGeometry relative="1" as="geometry">
            <mxPoint y="55" as="offset" />
          </mxGeometry>
        </mxCell>
        <mxCell id="pyX0MIcvsTEZzDeKxINh-103" value="Choix de l&#39;organisation et du bâtiment correspondant" style="rounded=1;whiteSpace=wrap;html=1;" vertex="1" parent="pyX0MIcvsTEZzDeKxINh-68">
          <mxGeometry x="688" y="1010" width="136" height="80" as="geometry" />
        </mxCell>
        <mxCell id="pyX0MIcvsTEZzDeKxINh-105" value="Choix de l&#39;organisation&amp;nbsp; correspondante" style="rounded=1;whiteSpace=wrap;html=1;" vertex="1" parent="pyX0MIcvsTEZzDeKxINh-68">
          <mxGeometry x="500" y="1010" width="136" height="80" as="geometry" />
        </mxCell>
        <mxCell id="pyX0MIcvsTEZzDeKxINh-106" value="Appliquable à tous" style="rounded=1;whiteSpace=wrap;html=1;" vertex="1" parent="pyX0MIcvsTEZzDeKxINh-68">
          <mxGeometry x="320" y="1010" width="136" height="80" as="geometry" />
        </mxCell>
        <mxCell id="pyX0MIcvsTEZzDeKxINh-107" value="" style="endArrow=classic;html=1;rounded=0;exitX=0;exitY=0.5;exitDx=0;exitDy=0;entryX=0.5;entryY=0;entryDx=0;entryDy=0;" edge="1" parent="pyX0MIcvsTEZzDeKxINh-68" source="pyX0MIcvsTEZzDeKxINh-99" target="pyX0MIcvsTEZzDeKxINh-106">
          <mxGeometry relative="1" as="geometry">
            <mxPoint x="440" y="1170" as="sourcePoint" />
            <mxPoint x="550" y="1310" as="targetPoint" />
            <Array as="points">
              <mxPoint x="390" y="870" />
            </Array>
          </mxGeometry>
        </mxCell>
        <mxCell id="pyX0MIcvsTEZzDeKxINh-108" value="Tous" style="edgeLabel;resizable=0;html=1;;align=center;verticalAlign=middle;" connectable="0" vertex="1" parent="pyX0MIcvsTEZzDeKxINh-107">
          <mxGeometry relative="1" as="geometry">
            <mxPoint x="-2" y="50" as="offset" />
          </mxGeometry>
        </mxCell>
        <mxCell id="pyX0MIcvsTEZzDeKxINh-109" value="" style="endArrow=classic;html=1;rounded=0;exitX=0.5;exitY=1;exitDx=0;exitDy=0;entryX=0.5;entryY=0;entryDx=0;entryDy=0;" edge="1" parent="pyX0MIcvsTEZzDeKxINh-68" source="pyX0MIcvsTEZzDeKxINh-99" target="pyX0MIcvsTEZzDeKxINh-105">
          <mxGeometry width="50" height="50" relative="1" as="geometry">
            <mxPoint x="830" y="1110" as="sourcePoint" />
            <mxPoint x="880" y="1060" as="targetPoint" />
          </mxGeometry>
        </mxCell>
        <mxCell id="pyX0MIcvsTEZzDeKxINh-110" value="Organisation" style="edgeLabel;html=1;align=center;verticalAlign=middle;resizable=0;points=[];" vertex="1" connectable="0" parent="pyX0MIcvsTEZzDeKxINh-109">
          <mxGeometry x="-0.2" y="-2" relative="1" as="geometry">
            <mxPoint x="2" as="offset" />
          </mxGeometry>
        </mxCell>
        <mxCell id="pyX0MIcvsTEZzDeKxINh-114" value="remplissage des champs du header" style="rounded=1;whiteSpace=wrap;html=1;" vertex="1" parent="pyX0MIcvsTEZzDeKxINh-68">
          <mxGeometry x="500" y="1190" width="136" height="80" as="geometry" />
        </mxCell>
        <mxCell id="pyX0MIcvsTEZzDeKxINh-117" value="" style="endArrow=classic;html=1;rounded=0;exitX=0.5;exitY=1;exitDx=0;exitDy=0;entryX=0.5;entryY=0;entryDx=0;entryDy=0;" edge="1" parent="pyX0MIcvsTEZzDeKxINh-68" source="pyX0MIcvsTEZzDeKxINh-106" target="pyX0MIcvsTEZzDeKxINh-114">
          <mxGeometry width="50" height="50" relative="1" as="geometry">
            <mxPoint x="470" y="1154" as="sourcePoint" />
            <mxPoint x="520" y="1104" as="targetPoint" />
          </mxGeometry>
        </mxCell>
        <mxCell id="pyX0MIcvsTEZzDeKxINh-116" value="" style="endArrow=classic;html=1;rounded=0;exitX=0.5;exitY=1;exitDx=0;exitDy=0;entryX=0.5;entryY=0;entryDx=0;entryDy=0;" edge="1" parent="pyX0MIcvsTEZzDeKxINh-68" source="pyX0MIcvsTEZzDeKxINh-105" target="pyX0MIcvsTEZzDeKxINh-114">
          <mxGeometry width="50" height="50" relative="1" as="geometry">
            <mxPoint x="830" y="1210" as="sourcePoint" />
            <mxPoint x="880" y="1160" as="targetPoint" />
          </mxGeometry>
        </mxCell>
        <mxCell id="pyX0MIcvsTEZzDeKxINh-115" value="" style="endArrow=classic;html=1;rounded=0;exitX=0.5;exitY=1;exitDx=0;exitDy=0;entryX=0.5;entryY=0;entryDx=0;entryDy=0;" edge="1" parent="pyX0MIcvsTEZzDeKxINh-68" source="pyX0MIcvsTEZzDeKxINh-103" target="pyX0MIcvsTEZzDeKxINh-114">
          <mxGeometry width="50" height="50" relative="1" as="geometry">
            <mxPoint x="830" y="1210" as="sourcePoint" />
            <mxPoint x="880" y="1160" as="targetPoint" />
          </mxGeometry>
        </mxCell>
        <mxCell id="pyX0MIcvsTEZzDeKxINh-119" value="Choix du type d&#39;anomali ?" style="rhombus;whiteSpace=wrap;html=1;" vertex="1" parent="pyX0MIcvsTEZzDeKxINh-68">
          <mxGeometry x="507" y="1320" width="122" height="100" as="geometry" />
        </mxCell>
        <mxCell id="pyX0MIcvsTEZzDeKxINh-120" value="" style="endArrow=classic;html=1;rounded=0;exitX=0.5;exitY=1;exitDx=0;exitDy=0;entryX=0.5;entryY=0;entryDx=0;entryDy=0;" edge="1" parent="pyX0MIcvsTEZzDeKxINh-68" source="pyX0MIcvsTEZzDeKxINh-114" target="pyX0MIcvsTEZzDeKxINh-119">
          <mxGeometry width="50" height="50" relative="1" as="geometry">
            <mxPoint x="830" y="1210" as="sourcePoint" />
            <mxPoint x="880" y="1160" as="targetPoint" />
          </mxGeometry>
        </mxCell>
        <mxCell id="pyX0MIcvsTEZzDeKxINh-123" value="remplissage du formulaire correspondant en respectant les règles pré défini" style="rounded=1;whiteSpace=wrap;html=1;" vertex="1" parent="pyX0MIcvsTEZzDeKxINh-68">
          <mxGeometry x="336" y="1460" width="120" height="80" as="geometry" />
        </mxCell>
        <mxCell id="pyX0MIcvsTEZzDeKxINh-122" value="remplissage du formulaire correspondant en respectant les règles pré défini" style="rounded=1;whiteSpace=wrap;html=1;" vertex="1" parent="pyX0MIcvsTEZzDeKxINh-68">
          <mxGeometry x="508" y="1490" width="120" height="80" as="geometry" />
        </mxCell>
        <mxCell id="pyX0MIcvsTEZzDeKxINh-121" value="Ajout des valeur à la liste" style="rounded=1;whiteSpace=wrap;html=1;" vertex="1" parent="pyX0MIcvsTEZzDeKxINh-68">
          <mxGeometry x="688" y="1460" width="120" height="80" as="geometry" />
        </mxCell>
        <mxCell id="pyX0MIcvsTEZzDeKxINh-124" value="" style="endArrow=classic;html=1;rounded=0;exitX=0.5;exitY=1;exitDx=0;exitDy=0;entryX=0.5;entryY=0;entryDx=0;entryDy=0;" edge="1" parent="pyX0MIcvsTEZzDeKxINh-68" source="pyX0MIcvsTEZzDeKxINh-119" target="pyX0MIcvsTEZzDeKxINh-122">
          <mxGeometry width="50" height="50" relative="1" as="geometry">
            <mxPoint x="660" y="1270" as="sourcePoint" />
            <mxPoint x="660" y="1370" as="targetPoint" />
          </mxGeometry>
        </mxCell>
        <mxCell id="pyX0MIcvsTEZzDeKxINh-130" value="Valeur Anormale" style="edgeLabel;html=1;align=center;verticalAlign=middle;resizable=0;points=[];" vertex="1" connectable="0" parent="pyX0MIcvsTEZzDeKxINh-124">
          <mxGeometry x="-0.1143" y="-1" relative="1" as="geometry">
            <mxPoint as="offset" />
          </mxGeometry>
        </mxCell>
        <mxCell id="pyX0MIcvsTEZzDeKxINh-125" value="" style="endArrow=classic;html=1;rounded=0;exitX=1;exitY=0.5;exitDx=0;exitDy=0;entryX=0.5;entryY=0;entryDx=0;entryDy=0;" edge="1" parent="pyX0MIcvsTEZzDeKxINh-68" source="pyX0MIcvsTEZzDeKxINh-119" target="pyX0MIcvsTEZzDeKxINh-121">
          <mxGeometry width="50" height="50" relative="1" as="geometry">
            <mxPoint x="740" y="1420" as="sourcePoint" />
            <mxPoint x="740" y="1460" as="targetPoint" />
            <Array as="points">
              <mxPoint x="748" y="1370" />
            </Array>
          </mxGeometry>
        </mxCell>
        <mxCell id="pyX0MIcvsTEZzDeKxINh-131" value="Alarme" style="edgeLabel;html=1;align=center;verticalAlign=middle;resizable=0;points=[];" vertex="1" connectable="0" parent="pyX0MIcvsTEZzDeKxINh-125">
          <mxGeometry x="0.512" relative="1" as="geometry">
            <mxPoint as="offset" />
          </mxGeometry>
        </mxCell>
        <mxCell id="pyX0MIcvsTEZzDeKxINh-126" value="" style="endArrow=classic;html=1;rounded=0;exitX=0;exitY=0.5;exitDx=0;exitDy=0;entryX=0.5;entryY=0;entryDx=0;entryDy=0;" edge="1" parent="pyX0MIcvsTEZzDeKxINh-68" source="pyX0MIcvsTEZzDeKxINh-119" target="pyX0MIcvsTEZzDeKxINh-123">
          <mxGeometry width="50" height="50" relative="1" as="geometry">
            <mxPoint x="790" y="1390" as="sourcePoint" />
            <mxPoint x="909" y="1480" as="targetPoint" />
            <Array as="points">
              <mxPoint x="396" y="1370" />
            </Array>
          </mxGeometry>
        </mxCell>
        <mxCell id="pyX0MIcvsTEZzDeKxINh-128" value="Consigne" style="edgeLabel;html=1;align=center;verticalAlign=middle;resizable=0;points=[];" vertex="1" connectable="0" parent="pyX0MIcvsTEZzDeKxINh-126">
          <mxGeometry x="0.4428" y="2" relative="1" as="geometry">
            <mxPoint x="-2" as="offset" />
          </mxGeometry>
        </mxCell>
        <mxCell id="pyX0MIcvsTEZzDeKxINh-133" value="un registre de blocage ?" style="rhombus;whiteSpace=wrap;html=1;" vertex="1" parent="pyX0MIcvsTEZzDeKxINh-68">
          <mxGeometry x="512" y="1650" width="112" height="110" as="geometry" />
        </mxCell>
        <mxCell id="pyX0MIcvsTEZzDeKxINh-134" value="" style="endArrow=classic;html=1;rounded=0;exitX=0.5;exitY=1;exitDx=0;exitDy=0;entryX=0.5;entryY=0;entryDx=0;entryDy=0;" edge="1" parent="pyX0MIcvsTEZzDeKxINh-68" source="pyX0MIcvsTEZzDeKxINh-123" target="pyX0MIcvsTEZzDeKxINh-133">
          <mxGeometry width="50" height="50" relative="1" as="geometry">
            <mxPoint x="630" y="1590" as="sourcePoint" />
            <mxPoint x="680" y="1540" as="targetPoint" />
          </mxGeometry>
        </mxCell>
        <mxCell id="pyX0MIcvsTEZzDeKxINh-135" value="" style="endArrow=classic;html=1;rounded=0;exitX=0.5;exitY=1;exitDx=0;exitDy=0;entryX=0.5;entryY=0;entryDx=0;entryDy=0;" edge="1" parent="pyX0MIcvsTEZzDeKxINh-68" source="pyX0MIcvsTEZzDeKxINh-122" target="pyX0MIcvsTEZzDeKxINh-133">
          <mxGeometry width="50" height="50" relative="1" as="geometry">
            <mxPoint x="630" y="1590" as="sourcePoint" />
            <mxPoint x="680" y="1540" as="targetPoint" />
          </mxGeometry>
        </mxCell>
        <mxCell id="pyX0MIcvsTEZzDeKxINh-136" value="" style="endArrow=classic;html=1;rounded=0;exitX=0.5;exitY=1;exitDx=0;exitDy=0;entryX=0.5;entryY=0;entryDx=0;entryDy=0;" edge="1" parent="pyX0MIcvsTEZzDeKxINh-68" source="pyX0MIcvsTEZzDeKxINh-121" target="pyX0MIcvsTEZzDeKxINh-133">
          <mxGeometry width="50" height="50" relative="1" as="geometry">
            <mxPoint x="590" y="1590" as="sourcePoint" />
            <mxPoint x="590" y="1660" as="targetPoint" />
          </mxGeometry>
        </mxCell>
        <mxCell id="pyX0MIcvsTEZzDeKxINh-137" value="" style="endArrow=classic;html=1;rounded=0;exitX=0;exitY=0.5;exitDx=0;exitDy=0;entryX=1;entryY=0.5;entryDx=0;entryDy=0;" edge="1" parent="pyX0MIcvsTEZzDeKxINh-68" source="pyX0MIcvsTEZzDeKxINh-133" target="pyX0MIcvsTEZzDeKxINh-139">
          <mxGeometry relative="1" as="geometry">
            <mxPoint x="380" y="1810" as="sourcePoint" />
            <mxPoint x="480" y="1810" as="targetPoint" />
          </mxGeometry>
        </mxCell>
        <mxCell id="pyX0MIcvsTEZzDeKxINh-138" value="Oui" style="edgeLabel;resizable=0;html=1;;align=center;verticalAlign=middle;" connectable="0" vertex="1" parent="pyX0MIcvsTEZzDeKxINh-137">
          <mxGeometry relative="1" as="geometry" />
        </mxCell>
        <mxCell id="pyX0MIcvsTEZzDeKxINh-139" value="Selection du / des registres de blocages" style="rounded=1;whiteSpace=wrap;html=1;" vertex="1" parent="pyX0MIcvsTEZzDeKxINh-68">
          <mxGeometry x="264" y="1675" width="120" height="60" as="geometry" />
        </mxCell>
        <mxCell id="pyX0MIcvsTEZzDeKxINh-140" value="" style="endArrow=classic;html=1;rounded=0;exitX=0.5;exitY=1;exitDx=0;exitDy=0;entryX=0.5;entryY=0;entryDx=0;entryDy=0;" edge="1" parent="pyX0MIcvsTEZzDeKxINh-68" source="pyX0MIcvsTEZzDeKxINh-133" target="pyX0MIcvsTEZzDeKxINh-144">
          <mxGeometry relative="1" as="geometry">
            <mxPoint x="788" y="1760" as="sourcePoint" />
            <mxPoint x="660" y="1750" as="targetPoint" />
          </mxGeometry>
        </mxCell>
        <mxCell id="pyX0MIcvsTEZzDeKxINh-141" value="Non" style="edgeLabel;resizable=0;html=1;;align=center;verticalAlign=middle;" connectable="0" vertex="1" parent="pyX0MIcvsTEZzDeKxINh-140">
          <mxGeometry relative="1" as="geometry" />
        </mxCell>
        <mxCell id="pyX0MIcvsTEZzDeKxINh-144" value="un registre de surveillance ?" style="rhombus;whiteSpace=wrap;html=1;" vertex="1" parent="pyX0MIcvsTEZzDeKxINh-68">
          <mxGeometry x="512" y="1840" width="112" height="110" as="geometry" />
        </mxCell>
        <mxCell id="pyX0MIcvsTEZzDeKxINh-145" value="" style="endArrow=classic;html=1;rounded=0;exitX=0.5;exitY=1;exitDx=0;exitDy=0;entryX=0.5;entryY=0;entryDx=0;entryDy=0;" edge="1" parent="pyX0MIcvsTEZzDeKxINh-68" source="pyX0MIcvsTEZzDeKxINh-139" target="pyX0MIcvsTEZzDeKxINh-144">
          <mxGeometry width="50" height="50" relative="1" as="geometry">
            <mxPoint x="730" y="1810" as="sourcePoint" />
            <mxPoint x="780" y="1760" as="targetPoint" />
          </mxGeometry>
        </mxCell>
        <mxCell id="pyX0MIcvsTEZzDeKxINh-146" value="" style="endArrow=classic;html=1;rounded=0;exitX=0;exitY=0.5;exitDx=0;exitDy=0;entryX=1;entryY=0.5;entryDx=0;entryDy=0;" edge="1" parent="pyX0MIcvsTEZzDeKxINh-68" target="pyX0MIcvsTEZzDeKxINh-148" source="pyX0MIcvsTEZzDeKxINh-144">
          <mxGeometry relative="1" as="geometry">
            <mxPoint x="507" y="1895" as="sourcePoint" />
            <mxPoint x="475" y="2000" as="targetPoint" />
          </mxGeometry>
        </mxCell>
        <mxCell id="pyX0MIcvsTEZzDeKxINh-147" value="Oui" style="edgeLabel;resizable=0;html=1;;align=center;verticalAlign=middle;" connectable="0" vertex="1" parent="pyX0MIcvsTEZzDeKxINh-146">
          <mxGeometry relative="1" as="geometry" />
        </mxCell>
        <mxCell id="pyX0MIcvsTEZzDeKxINh-148" value="Selection du / des registres de surveillances" style="rounded=1;whiteSpace=wrap;html=1;" vertex="1" parent="pyX0MIcvsTEZzDeKxINh-68">
          <mxGeometry x="264" y="1865" width="120" height="60" as="geometry" />
        </mxCell>
        <mxCell id="pyX0MIcvsTEZzDeKxINh-150" value="Le template est conforme ?" style="rhombus;whiteSpace=wrap;html=1;" vertex="1" parent="pyX0MIcvsTEZzDeKxINh-68">
          <mxGeometry x="512" y="2040" width="112" height="110" as="geometry" />
        </mxCell>
        <mxCell id="pyX0MIcvsTEZzDeKxINh-151" value="" style="endArrow=classic;html=1;rounded=0;exitX=0.5;exitY=1;exitDx=0;exitDy=0;entryX=0.5;entryY=0;entryDx=0;entryDy=0;" edge="1" parent="pyX0MIcvsTEZzDeKxINh-68" source="pyX0MIcvsTEZzDeKxINh-144" target="pyX0MIcvsTEZzDeKxINh-150">
          <mxGeometry width="50" height="50" relative="1" as="geometry">
            <mxPoint x="660" y="2070" as="sourcePoint" />
            <mxPoint x="710" y="2020" as="targetPoint" />
          </mxGeometry>
        </mxCell>
        <mxCell id="pyX0MIcvsTEZzDeKxINh-152" value="Non" style="edgeLabel;html=1;align=center;verticalAlign=middle;resizable=0;points=[];" vertex="1" connectable="0" parent="pyX0MIcvsTEZzDeKxINh-151">
          <mxGeometry x="-0.065" y="2" relative="1" as="geometry">
            <mxPoint as="offset" />
          </mxGeometry>
        </mxCell>
        <mxCell id="pyX0MIcvsTEZzDeKxINh-153" value="" style="endArrow=classic;html=1;rounded=0;exitX=0.5;exitY=1;exitDx=0;exitDy=0;entryX=0.5;entryY=0;entryDx=0;entryDy=0;" edge="1" parent="pyX0MIcvsTEZzDeKxINh-68" source="pyX0MIcvsTEZzDeKxINh-148" target="pyX0MIcvsTEZzDeKxINh-150">
          <mxGeometry width="50" height="50" relative="1" as="geometry">
            <mxPoint x="660" y="2070" as="sourcePoint" />
            <mxPoint x="710" y="2020" as="targetPoint" />
          </mxGeometry>
        </mxCell>
        <mxCell id="pyX0MIcvsTEZzDeKxINh-156" value="Génération de la vue" style="rounded=1;whiteSpace=wrap;html=1;" vertex="1" parent="pyX0MIcvsTEZzDeKxINh-68">
          <mxGeometry x="507" y="2230" width="120" height="60" as="geometry" />
        </mxCell>
        <mxCell id="pyX0MIcvsTEZzDeKxINh-154" value="" style="endArrow=classic;html=1;rounded=0;exitX=0.5;exitY=1;exitDx=0;exitDy=0;entryX=0.5;entryY=0;entryDx=0;entryDy=0;" edge="1" parent="pyX0MIcvsTEZzDeKxINh-68" source="pyX0MIcvsTEZzDeKxINh-150" target="pyX0MIcvsTEZzDeKxINh-156">
          <mxGeometry relative="1" as="geometry">
            <mxPoint x="640" y="2200" as="sourcePoint" />
            <mxPoint x="740" y="2200" as="targetPoint" />
          </mxGeometry>
        </mxCell>
        <mxCell id="pyX0MIcvsTEZzDeKxINh-155" value="Oui" style="edgeLabel;resizable=0;html=1;;align=center;verticalAlign=middle;" connectable="0" vertex="1" parent="pyX0MIcvsTEZzDeKxINh-154">
          <mxGeometry relative="1" as="geometry" />
        </mxCell>
        <mxCell id="pyX0MIcvsTEZzDeKxINh-167" value="Non" style="endArrow=classic;html=1;rounded=0;exitX=0;exitY=0.5;exitDx=0;exitDy=0;entryX=0.5;entryY=0;entryDx=0;entryDy=0;" edge="1" parent="pyX0MIcvsTEZzDeKxINh-68" source="pyX0MIcvsTEZzDeKxINh-150" target="pyX0MIcvsTEZzDeKxINh-99">
          <mxGeometry width="50" height="50" relative="1" as="geometry">
            <mxPoint x="714" y="2695" as="sourcePoint" />
            <mxPoint x="790" y="2095" as="targetPoint" />
            <Array as="points">
              <mxPoint x="210" y="2095" />
              <mxPoint x="210" y="790" />
            </Array>
          </mxGeometry>
        </mxCell>
        <mxCell id="pyX0MIcvsTEZzDeKxINh-178" value="Non" style="edgeLabel;html=1;align=center;verticalAlign=middle;resizable=0;points=[];" vertex="1" connectable="0" parent="pyX0MIcvsTEZzDeKxINh-167">
          <mxGeometry x="-0.9135" y="-2" relative="1" as="geometry">
            <mxPoint as="offset" />
          </mxGeometry>
        </mxCell>
        <mxCell id="pyX0MIcvsTEZzDeKxINh-173" value="Création du template" style="shape=umlFrame;whiteSpace=wrap;html=1;pointerEvents=0;recursiveResize=0;container=1;collapsible=0;width=160;" vertex="1" parent="pyX0MIcvsTEZzDeKxINh-68">
          <mxGeometry x="170" y="720" width="700" height="1610" as="geometry" />
        </mxCell>
        <mxCell id="pyX0MIcvsTEZzDeKxINh-179" value="" style="endArrow=classic;html=1;rounded=0;exitX=0.5;exitY=1;exitDx=0;exitDy=0;entryX=0.614;entryY=0.999;entryDx=0;entryDy=0;entryPerimeter=0;" edge="1" parent="pyX0MIcvsTEZzDeKxINh-68" source="pyX0MIcvsTEZzDeKxINh-156" target="pyX0MIcvsTEZzDeKxINh-68">
          <mxGeometry width="50" height="50" relative="1" as="geometry">
            <mxPoint x="790" y="2340" as="sourcePoint" />
            <mxPoint x="840" y="2290" as="targetPoint" />
          </mxGeometry>
        </mxCell>
        <mxCell id="pyX0MIcvsTEZzDeKxINh-181" value="" style="endArrow=classic;html=1;rounded=0;exitX=0.5;exitY=1;exitDx=0;exitDy=0;entryX=0.615;entryY=1;entryDx=0;entryDy=0;entryPerimeter=0;" edge="1" parent="pyX0MIcvsTEZzDeKxINh-68" source="pyX0MIcvsTEZzDeKxINh-69" target="pyX0MIcvsTEZzDeKxINh-68">
          <mxGeometry width="50" height="50" relative="1" as="geometry">
            <mxPoint x="1150" y="1100" as="sourcePoint" />
            <mxPoint x="1422" y="2650" as="targetPoint" />
          </mxGeometry>
        </mxCell>
        <mxCell id="pyX0MIcvsTEZzDeKxINh-170" value="" style="endArrow=classic;html=1;rounded=0;exitX=0.615;exitY=1.001;exitDx=0;exitDy=0;exitPerimeter=0;entryX=0.5;entryY=0;entryDx=0;entryDy=0;" edge="1" parent="1" source="pyX0MIcvsTEZzDeKxINh-68" target="pyX0MIcvsTEZzDeKxINh-174">
          <mxGeometry width="50" height="50" relative="1" as="geometry">
            <mxPoint x="1058" y="3200" as="sourcePoint" />
            <mxPoint x="1310" y="3190" as="targetPoint" />
          </mxGeometry>
        </mxCell>
        <mxCell id="pyX0MIcvsTEZzDeKxINh-174" value="" style="ellipse;html=1;shape=endState;fillColor=strokeColor;" vertex="1" parent="1">
          <mxGeometry x="1270" y="3200" width="80" height="80" as="geometry" />
        </mxCell>
        <mxCell id="pyX0MIcvsTEZzDeKxINh-180" value="" style="endArrow=classic;html=1;rounded=0;exitX=0.5;exitY=1;exitDx=0;exitDy=0;" edge="1" parent="1" source="pyX0MIcvsTEZzDeKxINh-95">
          <mxGeometry width="50" height="50" relative="1" as="geometry">
            <mxPoint x="1110" y="2910" as="sourcePoint" />
            <mxPoint x="1310" y="3050" as="targetPoint" />
          </mxGeometry>
        </mxCell>
        <mxCell id="pyX0MIcvsTEZzDeKxINh-182" value="" style="ellipse;fillColor=strokeColor;html=1;" vertex="1" parent="1">
          <mxGeometry x="1226" width="30" height="30" as="geometry" />
        </mxCell>
      </root>
    </mxGraphModel>
  </diagram>
</mxfile>
